# xmcd
#
# Track frame offsets: 
#        150
#        19220
#        40733
#        57190
#        81380
#        105575
#        133603
#        155458
#        172923
#        190973
#
# Disc length: 2786 seconds
#
# Revision: 1
# Processed by: cddbd v1.5.1PL0 Copyright (c) Steve Scherf et al.
# Submitted via: ExactAudioCopy v0.95a5
#
DISCID=7b0ae00a
DTITLE=Deadman - Our Eternal Ghosts
DYEAR=2005
DGENRE=Country
TTITLE0=When The Music's Not Forgotten
TTITLE1=Won't Be Long
TTITLE2=Brother John
TTITLE3=Werewolves
TTITLE4=The Monsters Of Goya
TTITLE5=Sad Ole 'Geronimo
TTITLE6=Slow Dance
TTITLE7=Absalom! Absalom!
TTITLE8=Love Will Guide You Home
TTITLE9=Brother
EXTD=
EXTT0=
EXTT1=
EXTT2=
EXTT3=
EXTT4=
EXTT5=
EXTT6=
EXTT7=
EXTT8=
EXTT9=
PLAYORDER=
